<?xml version="1.0" encoding="UTF-8" standalone="no"?>
<!-- Created with Inkscape (http://www.inkscape.org/) -->

<svg
   xmlns:osb="http://www.openswatchbook.org/uri/2009/osb"
   xmlns:dc="http://purl.org/dc/elements/1.1/"
   xmlns:cc="http://creativecommons.org/ns#"
   xmlns:rdf="http://www.w3.org/1999/02/22-rdf-syntax-ns#"
   xmlns:svg="http://www.w3.org/2000/svg"
   xmlns="http://www.w3.org/2000/svg"
   xmlns:xlink="http://www.w3.org/1999/xlink"
   xmlns:sodipodi="http://sodipodi.sourceforge.net/DTD/sodipodi-0.dtd"
   xmlns:inkscape="http://www.inkscape.org/namespaces/inkscape"
   width="356mm"
   height="297mm"
   viewBox="0 0 356 297"
   version="1.1"
   id="svg8"
   inkscape:version="0.92.4 (5da689c313, 2019-01-14)"
   sodipodi:docname="Имя-2.svg"
   inkscape:export-filename="C:\Users\123\Desktop\Inkscape\Имя.png"
   inkscape:export-xdpi="96"
   inkscape:export-ydpi="96">
  <defs
     id="defs2">
    <linearGradient
       id="linearGradient2622"
       osb:paint="solid">
      <stop
         style="stop-color:#c3a8ff;stop-opacity:1;"
         offset="0"
         id="stop2620" />
    </linearGradient>
    <linearGradient
       inkscape:collect="always"
       id="linearGradient1141">
      <stop
         style="stop-color:#bba8ff;stop-opacity:1;"
         offset="0"
         id="stop1137" />
      <stop
         style="stop-color:#bba8ff;stop-opacity:0;"
         offset="1"
         id="stop1139" />
    </linearGradient>
    <linearGradient
       inkscape:collect="always"
       xlink:href="#linearGradient1141"
       id="linearGradient1143"
       x1="-0.56508023"
       y1="64.546227"
       x2="368.16086"
       y2="64.546227"
       gradientUnits="userSpaceOnUse" />
  </defs>
  <sodipodi:namedview
     id="base"
     pagecolor="#ffffff"
     bordercolor="#666666"
     borderopacity="1.0"
     inkscape:pageopacity="0.0"
     inkscape:pageshadow="2"
     inkscape:zoom="0.35"
     inkscape:cx="601.02362"
     inkscape:cy="574.70253"
     inkscape:document-units="mm"
     inkscape:current-layer="layer1"
     showgrid="false"
     inkscape:window-width="1366"
     inkscape:window-height="715"
     inkscape:window-x="-8"
     inkscape:window-y="-8"
     inkscape:window-maximized="1"
     inkscape:measure-start="0,0"
     inkscape:measure-end="0,0"
     inkscape:pagecheckerboard="false"
     units="mm" />
  <metadata
     id="metadata5">
    <rdf:RDF>
      <cc:Work
         rdf:about="">
        <dc:format>image/svg+xml</dc:format>
        <dc:type
           rdf:resource="http://purl.org/dc/dcmitype/StillImage" />
        <dc:title></dc:title>
      </cc:Work>
    </rdf:RDF>
  </metadata>
  <g
     inkscape:label="Layer 1"
     inkscape:groupmode="layer"
     id="layer1">
    <text
       xml:space="preserve"
       style="font-style:normal;font-variant:normal;font-weight:normal;font-stretch:normal;font-size:50.79999924px;line-height:1.25;font-family:Sevenet7Cyr;-inkscape-font-specification:Sevenet7Cyr;letter-spacing:0px;word-spacing:0px;fill:#000000;fill-opacity:1;stroke:none;stroke-width:0.26458332"
       x="-153.45833"
       y="224.42856"
       id="text12"><tspan
         sodipodi:role="line"
         id="tspan10"
         x="-153.45833"
         y="270.77493"
         style="font-style:normal;font-variant:normal;font-weight:normal;font-stretch:normal;font-family:Sevenet7Cyr;-inkscape-font-specification:Sevenet7Cyr;stroke-width:0.26458332" /></text>
    <text
       xml:space="preserve"
       style="font-style:normal;font-variant:normal;font-weight:normal;font-stretch:normal;font-size:50.79999924px;line-height:1.25;font-family:Sevenet7Cyr;-inkscape-font-specification:Sevenet7Cyr;letter-spacing:0px;word-spacing:0px;fill:#000000;fill-opacity:1;stroke:none;stroke-width:0.26458332"
       x="34.773811"
       y="27.880953"
       id="text24"><tspan
         sodipodi:role="line"
         id="tspan22"
         x="34.773811"
         y="74.227333"
         style="font-style:normal;font-variant:normal;font-weight:normal;font-stretch:normal;font-family:Sevenet7Cyr;-inkscape-font-specification:Sevenet7Cyr;stroke-width:0.26458332" /></text>
    <text
       xml:space="preserve"
       style="font-style:normal;font-variant:normal;font-weight:normal;font-stretch:normal;font-size:50.79999924px;line-height:1.25;font-family:Playbill;-inkscape-font-specification:Playbill;letter-spacing:0px;word-spacing:0px;fill:#000000;fill-opacity:1;stroke:none;stroke-width:0.26458332"
       x="-36.285713"
       y="365.79166"
       id="text21"><tspan
         sodipodi:role="line"
         x="-36.285713"
         y="412.55075"
         style="font-style:normal;font-variant:normal;font-weight:normal;font-stretch:normal;font-family:Playbill;-inkscape-font-specification:Playbill;stroke-width:0.26458332"
         id="tspan25" /></text>
    <text
       xml:space="preserve"
       style="font-style:normal;font-variant:normal;font-weight:normal;font-stretch:normal;font-size:50.79999924px;line-height:1.25;font-family:TeamViewer13;-inkscape-font-specification:TeamViewer13;letter-spacing:0px;word-spacing:0px;fill:#000000;fill-opacity:1;stroke:none;stroke-width:0.26458332"
       x="-25.702381"
       y="358.23215"
       id="text33"><tspan
         sodipodi:role="line"
         id="tspan31"
         x="-25.702381"
         y="404.57852"
         style="stroke-width:0.26458332" /></text>
    <g
       aria-label="Gakn s"
       transform="scale(1.1559335,0.86510166)"
       style="font-style:normal;font-variant:normal;font-weight:normal;font-stretch:normal;font-size:408.84216309px;line-height:1.25;font-family:LittleRickeyNF;-inkscape-font-specification:LittleRickeyNF;letter-spacing:0px;word-spacing:0px;fill:#000000;fill-opacity:1;stroke:none;stroke-width:2.12938619"
       id="text41" />
    <text
       xml:space="preserve"
       style="font-style:normal;font-variant:normal;font-weight:normal;font-stretch:normal;font-size:50.79999924px;line-height:1.25;font-family:LittleRickeyNF;-inkscape-font-specification:LittleRickeyNF;letter-spacing:0px;word-spacing:0px;fill:#000000;fill-opacity:1;stroke:none;stroke-width:0.26458332"
       x="-167.06548"
       y="489.76785"
       id="text38"><tspan
         sodipodi:role="line"
         id="tspan36"
         x="-167.06548"
         y="536.11426"
         style="stroke-width:0.26458332" /></text>
    <text
       xml:space="preserve"
       style="font-style:normal;font-variant:normal;font-weight:normal;font-stretch:normal;font-size:50.79999924px;line-height:1.25;font-family:LittleRickeyNF;-inkscape-font-specification:LittleRickeyNF;letter-spacing:0px;word-spacing:0px;fill:#000000;fill-opacity:1;stroke:none;stroke-width:0.26458332"
       x="128.5119"
       y="3.6904759"
       id="text42"><tspan
         sodipodi:role="line"
         id="tspan40"
         x="128.5119"
         y="50.036854"
         style="stroke-width:0.26458332" /></text>
    <path
       style="fill:none;fill-rule:evenodd;stroke:#000000;stroke-width:0.26458332px;stroke-linecap:butt;stroke-linejoin:miter;stroke-opacity:1"
       d="m 574.52381,221.40476 -3.77976,0.75595"
       id="path67"
       inkscape:connector-type="polyline"
       inkscape:connector-curvature="3" />
    <path
       id="path3742"
       style="stroke-width:0.26458332"
       ry="54.050598"
       rx="49.514877"
       cy="191.54463"
       cx="102.43154"
       d=""
       inkscape:connector-curvature="0" />
    <g
       aria-label="@"
       transform="matrix(0.96548535,0,0,0.72889798,-5.4300631,100.68517)"
       style="font-style:normal;font-variant:normal;font-weight:normal;font-stretch:normal;font-size:169.5693512px;line-height:1.25;font-family:LittleRickeyNF;-inkscape-font-specification:LittleRickeyNF;letter-spacing:0px;word-spacing:0px;opacity:1;fill:#000000;fill-opacity:1;stroke:url(#linearGradient1143);stroke-width:3.48900008;stroke-miterlimit:4;stroke-dasharray:none;stroke-opacity:1"
       id="text3773"
       inkscape:export-xdpi="96"
       inkscape:export-ydpi="96">
      <path
         id="path4855"
         style="stroke:#c3a8ff;stroke-width:3.48959327;stroke-miterlimit:4;stroke-dasharray:none;stroke-opacity:1"
         d="m 297.68154,129.989 q 0,-2.03483 -1.86526,-2.03483 -4.91751,0 -10.17416,8.13933 -4.74794,7.46105 -4.74794,12.54813 0,2.54354 1.69569,2.54354 7.29148,0 12.88727,-13.05684 2.2044,-5.08708 2.2044,-8.13933 z m 31.37033,-24.75712 q 0,11.86985 -9.83502,31.70947 -11.02201,22.21358 -21.70488,22.21358 -3.39139,0 -5.25665,-3.39139 -4.57837,3.22182 -9.66545,3.22182 -9.15675,0 -9.15675,-10.00459 0,-9.32631 6.95235,-18.99177 7.12191,-9.83502 15.43081,-9.83502 3.90009,0 6.6132,2.2044 l 1.18699,-3.05225 h 8.47847 l -12.03943,28.14852 q -0.33914,0.84784 -0.84784,3.22181 7.96975,-5.08708 15.09167,-20.68746 6.95234,-14.9221 6.95234,-24.75712 0,-11.191583 -7.96976,-11.191583 -11.36115,0 -23.57014,14.413403 -10.68287,12.54813 -18.31349,31.03119 -7.46105,17.80478 -7.46105,29.67463 0,12.88727 7.12191,12.88727 7.96976,0 23.06143,-16.44822 l 5.76536,5.08708 q -17.1265,19.16133 -28.82679,19.16133 -7.80019,0 -11.70028,-6.78277 -3.22182,-5.59579 -3.22182,-13.90469 0,-14.07425 8.3089,-33.57473 8.64804,-20.34832 21.0266,-33.7443 14.07425,-15.430814 27.80937,-15.430814 7.80019,0 12.03943,5.595789 3.73052,5.08708 3.73052,13.226415 z m 42.83151,-20.817061 -7.37336,20.856151 h -12.90337 v 43.07248 q 0,15.86882 -10.69136,26.75028 -10.3227,10.42808 -23.22606,10.42808 h -14.37805 l 7.37336,-20.85615 h 7.00469 q 5.89868,0 11.06002,-4.53394 5.53003,-4.98735 5.53003,-11.33487 V 95.296288 q 0,-4.080552 2.58066,-7.254313 2.94935,-3.627156 5.89869,-3.627156 z M 239.27823,185.52181 h -18.06472 q 26.91274,-77.98387 26.91274,-78.89065 0,-2.72037 -2.58068,-2.72037 -8.11069,0 -12.53469,12.69505 l -23.59474,68.91597 h -18.43338 l 24.70074,-71.18294 q 1.84333,-5.44074 1.84333,-9.97469 0,-5.894131 -4.42401,-14.055232 l 15.85271,-8.614497 q 2.21201,4.533946 2.94934,7.254312 7.00468,-5.440733 14.74671,-5.440733 8.11069,0 13.27204,5.894129 5.16134,5.894129 5.16134,15.868811 0,5.89413 -1.84333,11.33487 z M 216.92199,-31.200791 171.94453,99.376838 187.05991,84.414819 h 27.28141 L 178.21189,119.3262 q 7.37335,12.24166 7.37335,24.02992 0,9.52128 -11.06004,42.16569 h -18.43337 l 10.69136,-30.83083 q 2.212,-5.89413 2.212,-11.33486 0,-9.97468 -7.74202,-13.14845 l -19.17072,55.31414 H 124.01774 L 198.4886,-31.200791 Z M 104.08087,102.09721 q -9.216684,0 -20.276715,21.30954 -10.691362,20.85615 -10.691362,33.5512 0,8.61449 5.161348,8.61449 9.216691,0 20.276721,-21.76293 9.954028,-20.40276 9.954028,-33.0978 0,-8.6145 -4.42402,-8.6145 z m 35.02344,-18.135786 -25.0694,72.089736 q -1.84334,5.89412 -1.84334,10.42808 0,5.89412 5.53001,16.7756 l -16.22137,6.80091 q -2.580683,-4.98733 -4.792686,-11.78826 -9.216692,8.6145 -20.645389,8.6145 -20.276722,0 -20.276722,-26.75027 0,-24.02992 14.746706,-49.42001 15.85271,-27.20368 33.917431,-27.20368 9.58536,0 14.37804,5.440733 l 1.84334,-5.440733 h 18.43338 z M 96.217886,49.956832 q -12.903369,0 -12.903369,-19.495965 0,-12.695047 5.898683,-32.6444067 5.161347,-18.5891763 11.79736,-31.2842243 l 14.37805,11.334865 q -4.42402,8.1611 -11.06004,24.9366993 -7.004682,19.0425707 -7.004682,24.9366997 0,2.720367 1.474672,2.720367 8.47936,0 29.49341,-54.407345 13.27204,-35.364775 18.43339,-64.83542 1.84334,-13.148442 1.84334,-20.402752 0,-6.80092 -3.31801,-6.80092 -11.06003,0 -33.91743,39.445325 -31.705419,53.95395 -58.986827,143.726071 -28.756078,94.759454 -28.756078,155.514324 0,24.02992 7.74202,24.02992 9.954028,0 24.700734,-29.47064 h -17.32738 l 7.004686,-20.40276 h 86.268235 l -7.00469,20.40276 H 75.203829 q -20.276722,50.32679 -44.240121,50.32679 -23.5947317,0 -23.5947317,-49.42001 0,-65.7422 34.6547617,-174.556901 18.064716,-58.034502 40.922112,-105.187535 36.12944,-74.810094 63.41084,-74.810094 18.80205,0 18.80205,30.37743 0,9.521285 -1.84333,21.309543 -5.16135,31.737617 -19.53939,69.369365 -25.43807,65.288814 -47.558134,65.288814 z"
         inkscape:connector-curvature="0" />
    </g>
  </g>
</svg>
